<svg xmlns="http://www.w3.org/2000/svg" width="780" height="200" viewBox="0 0 780 200">
  <defs>
    <linearGradient id="bg" x1="0" y1="0" x2="1" y2="1">
      <stop offset="0%" stop-color="#0a0a1a"/>
      <stop offset="100%" stop-color="#14051e"/>
    </linearGradient>
    <filter id="glow">
      <feGaussianBlur stdDeviation="3" result="blur"/>
      <feMerge><feMergeNode in="blur"/><feMergeNode in="SourceGraphic"/></feMerge>
    </filter>
    <!-- stars -->
    <radialGradient id="star" cx="50%" cy="50%" r="50%">
      <stop offset="0%" stop-color="#fff" stop-opacity="1"/>
      <stop offset="100%" stop-color="#fff" stop-opacity="0"/>
    </radialGradient>
  </defs>

  <!-- background -->
  <rect width="780" height="200" rx="12" fill="url(#bg)"/>

  <!-- stars -->
  <circle cx="520" cy="22" r="1.2" fill="#fff" opacity=".7"/>
  <circle cx="610" cy="55" r="1.0" fill="#fff" opacity=".5"/>
  <circle cx="680" cy="18" r="1.5" fill="#fff" opacity=".8"/>
  <circle cx="740" cy="80" r="1.0" fill="#fff" opacity=".4"/>
  <circle cx="490" cy="140" r="1.2" fill="#fff" opacity=".6"/>
  <circle cx="560" cy="170" r="0.8" fill="#fff" opacity=".5"/>
  <circle cx="720" cy="155" r="1.3" fill="#fff" opacity=".7"/>
  <circle cx="650" cy="110" r="0.9" fill="#fff" opacity=".4"/>
  <circle cx="760" cy="40" r="1.1" fill="#fff" opacity=".6"/>
  <circle cx="540" cy="90" r="0.7" fill="#fff" opacity=".3"/>

  <!-- alien glow -->
  <g filter="url(#glow)" opacity=".5">
  <rect x="64" y="37" width="14" height="14" rx="2" ry="2" fill="#39FF14"/>
  <rect x="160" y="37" width="14" height="14" rx="2" ry="2" fill="#39FF14"/>
  <rect x="80" y="53" width="14" height="14" rx="2" ry="2" fill="#39FF14"/>
  <rect x="144" y="53" width="14" height="14" rx="2" ry="2" fill="#39FF14"/>
  <rect x="64" y="69" width="14" height="14" rx="2" ry="2" fill="#39FF14"/>
  <rect x="80" y="69" width="14" height="14" rx="2" ry="2" fill="#39FF14"/>
  <rect x="96" y="69" width="14" height="14" rx="2" ry="2" fill="#39FF14"/>
  <rect x="112" y="69" width="14" height="14" rx="2" ry="2" fill="#39FF14"/>
  <rect x="128" y="69" width="14" height="14" rx="2" ry="2" fill="#39FF14"/>
  <rect x="144" y="69" width="14" height="14" rx="2" ry="2" fill="#39FF14"/>
  <rect x="160" y="69" width="14" height="14" rx="2" ry="2" fill="#39FF14"/>
  <rect x="48" y="85" width="14" height="14" rx="2" ry="2" fill="#39FF14"/>
  <rect x="64" y="85" width="14" height="14" rx="2" ry="2" fill="#39FF14"/>
  <rect x="96" y="85" width="14" height="14" rx="2" ry="2" fill="#39FF14"/>
  <rect x="112" y="85" width="14" height="14" rx="2" ry="2" fill="#39FF14"/>
  <rect x="128" y="85" width="14" height="14" rx="2" ry="2" fill="#39FF14"/>
  <rect x="160" y="85" width="14" height="14" rx="2" ry="2" fill="#39FF14"/>
  <rect x="176" y="85" width="14" height="14" rx="2" ry="2" fill="#39FF14"/>
  <rect x="32" y="101" width="14" height="14" rx="2" ry="2" fill="#39FF14"/>
  <rect x="48" y="101" width="14" height="14" rx="2" ry="2" fill="#39FF14"/>
  <rect x="64" y="101" width="14" height="14" rx="2" ry="2" fill="#39FF14"/>
  <rect x="80" y="101" width="14" height="14" rx="2" ry="2" fill="#39FF14"/>
  <rect x="96" y="101" width="14" height="14" rx="2" ry="2" fill="#39FF14"/>
  <rect x="112" y="101" width="14" height="14" rx="2" ry="2" fill="#39FF14"/>
  <rect x="128" y="101" width="14" height="14" rx="2" ry="2" fill="#39FF14"/>
  <rect x="144" y="101" width="14" height="14" rx="2" ry="2" fill="#39FF14"/>
  <rect x="160" y="101" width="14" height="14" rx="2" ry="2" fill="#39FF14"/>
  <rect x="176" y="101" width="14" height="14" rx="2" ry="2" fill="#39FF14"/>
  <rect x="192" y="101" width="14" height="14" rx="2" ry="2" fill="#39FF14"/>
  <rect x="32" y="117" width="14" height="14" rx="2" ry="2" fill="#39FF14"/>
  <rect x="64" y="117" width="14" height="14" rx="2" ry="2" fill="#39FF14"/>
  <rect x="80" y="117" width="14" height="14" rx="2" ry="2" fill="#39FF14"/>
  <rect x="96" y="117" width="14" height="14" rx="2" ry="2" fill="#39FF14"/>
  <rect x="112" y="117" width="14" height="14" rx="2" ry="2" fill="#39FF14"/>
  <rect x="128" y="117" width="14" height="14" rx="2" ry="2" fill="#39FF14"/>
  <rect x="144" y="117" width="14" height="14" rx="2" ry="2" fill="#39FF14"/>
  <rect x="160" y="117" width="14" height="14" rx="2" ry="2" fill="#39FF14"/>
  <rect x="192" y="117" width="14" height="14" rx="2" ry="2" fill="#39FF14"/>
  <rect x="32" y="133" width="14" height="14" rx="2" ry="2" fill="#39FF14"/>
  <rect x="64" y="133" width="14" height="14" rx="2" ry="2" fill="#39FF14"/>
  <rect x="160" y="133" width="14" height="14" rx="2" ry="2" fill="#39FF14"/>
  <rect x="192" y="133" width="14" height="14" rx="2" ry="2" fill="#39FF14"/>
  <rect x="80" y="149" width="14" height="14" rx="2" ry="2" fill="#39FF14"/>
  <rect x="96" y="149" width="14" height="14" rx="2" ry="2" fill="#39FF14"/>
  <rect x="128" y="149" width="14" height="14" rx="2" ry="2" fill="#39FF14"/>
  <rect x="144" y="149" width="14" height="14" rx="2" ry="2" fill="#39FF14"/>
  </g>

  <!-- alien -->
  <g>
  <rect x="64" y="37" width="14" height="14" rx="2" ry="2" fill="#39FF14"/>
  <rect x="160" y="37" width="14" height="14" rx="2" ry="2" fill="#39FF14"/>
  <rect x="80" y="53" width="14" height="14" rx="2" ry="2" fill="#39FF14"/>
  <rect x="144" y="53" width="14" height="14" rx="2" ry="2" fill="#39FF14"/>
  <rect x="64" y="69" width="14" height="14" rx="2" ry="2" fill="#39FF14"/>
  <rect x="80" y="69" width="14" height="14" rx="2" ry="2" fill="#39FF14"/>
  <rect x="96" y="69" width="14" height="14" rx="2" ry="2" fill="#39FF14"/>
  <rect x="112" y="69" width="14" height="14" rx="2" ry="2" fill="#39FF14"/>
  <rect x="128" y="69" width="14" height="14" rx="2" ry="2" fill="#39FF14"/>
  <rect x="144" y="69" width="14" height="14" rx="2" ry="2" fill="#39FF14"/>
  <rect x="160" y="69" width="14" height="14" rx="2" ry="2" fill="#39FF14"/>
  <rect x="48" y="85" width="14" height="14" rx="2" ry="2" fill="#39FF14"/>
  <rect x="64" y="85" width="14" height="14" rx="2" ry="2" fill="#39FF14"/>
  <rect x="96" y="85" width="14" height="14" rx="2" ry="2" fill="#39FF14"/>
  <rect x="112" y="85" width="14" height="14" rx="2" ry="2" fill="#39FF14"/>
  <rect x="128" y="85" width="14" height="14" rx="2" ry="2" fill="#39FF14"/>
  <rect x="160" y="85" width="14" height="14" rx="2" ry="2" fill="#39FF14"/>
  <rect x="176" y="85" width="14" height="14" rx="2" ry="2" fill="#39FF14"/>
  <rect x="32" y="101" width="14" height="14" rx="2" ry="2" fill="#39FF14"/>
  <rect x="48" y="101" width="14" height="14" rx="2" ry="2" fill="#39FF14"/>
  <rect x="64" y="101" width="14" height="14" rx="2" ry="2" fill="#39FF14"/>
  <rect x="80" y="101" width="14" height="14" rx="2" ry="2" fill="#39FF14"/>
  <rect x="96" y="101" width="14" height="14" rx="2" ry="2" fill="#39FF14"/>
  <rect x="112" y="101" width="14" height="14" rx="2" ry="2" fill="#39FF14"/>
  <rect x="128" y="101" width="14" height="14" rx="2" ry="2" fill="#39FF14"/>
  <rect x="144" y="101" width="14" height="14" rx="2" ry="2" fill="#39FF14"/>
  <rect x="160" y="101" width="14" height="14" rx="2" ry="2" fill="#39FF14"/>
  <rect x="176" y="101" width="14" height="14" rx="2" ry="2" fill="#39FF14"/>
  <rect x="192" y="101" width="14" height="14" rx="2" ry="2" fill="#39FF14"/>
  <rect x="32" y="117" width="14" height="14" rx="2" ry="2" fill="#39FF14"/>
  <rect x="64" y="117" width="14" height="14" rx="2" ry="2" fill="#39FF14"/>
  <rect x="80" y="117" width="14" height="14" rx="2" ry="2" fill="#39FF14"/>
  <rect x="96" y="117" width="14" height="14" rx="2" ry="2" fill="#39FF14"/>
  <rect x="112" y="117" width="14" height="14" rx="2" ry="2" fill="#39FF14"/>
  <rect x="128" y="117" width="14" height="14" rx="2" ry="2" fill="#39FF14"/>
  <rect x="144" y="117" width="14" height="14" rx="2" ry="2" fill="#39FF14"/>
  <rect x="160" y="117" width="14" height="14" rx="2" ry="2" fill="#39FF14"/>
  <rect x="192" y="117" width="14" height="14" rx="2" ry="2" fill="#39FF14"/>
  <rect x="32" y="133" width="14" height="14" rx="2" ry="2" fill="#39FF14"/>
  <rect x="64" y="133" width="14" height="14" rx="2" ry="2" fill="#39FF14"/>
  <rect x="160" y="133" width="14" height="14" rx="2" ry="2" fill="#39FF14"/>
  <rect x="192" y="133" width="14" height="14" rx="2" ry="2" fill="#39FF14"/>
  <rect x="80" y="149" width="14" height="14" rx="2" ry="2" fill="#39FF14"/>
  <rect x="96" y="149" width="14" height="14" rx="2" ry="2" fill="#39FF14"/>
  <rect x="128" y="149" width="14" height="14" rx="2" ry="2" fill="#39FF14"/>
  <rect x="144" y="149" width="14" height="14" rx="2" ry="2" fill="#39FF14"/>
  </g>

  <!-- wordmark -->
  <text
    x="234"
    y="84"
    font-family="ui-monospace, 'SF Mono', Menlo, monospace"
    font-size="52"
    font-weight="700"
    letter-spacing="-1"
    fill="#39FF14"
    filter="url(#glow)"
  >Space</text>
  <text
    x="234"
    y="142"
    font-family="ui-monospace, 'SF Mono', Menlo, monospace"
    font-size="52"
    font-weight="700"
    letter-spacing="-1"
    fill="#ffffff"
  >Invader</text>
  <text
    x="236"
    y="176"
    font-family="ui-monospace, 'SF Mono', Menlo, monospace"
    font-size="13"
    fill="#39FF14"
    opacity=".7"
  >macOS Mission Control spaces, reinvented</text>
</svg>